<svg id="visual" viewBox="0 0 900 600" width="900" height="600" xmlns="http://www.w3.org/2000/svg" xmlns:xlink="http://www.w3.org/1999/xlink" version="1.1"><rect x="0" y="0" width="900" height="600" fill="#001220"></rect><defs><linearGradient id="grad1_0" x1="33.3%" y1="0%" x2="100%" y2="100%"><stop offset="20%" stop-color="#3cd7fa" stop-opacity="1"></stop><stop offset="80%" stop-color="#3cd7fa" stop-opacity="1"></stop></linearGradient></defs><defs><linearGradient id="grad1_1" x1="33.3%" y1="0%" x2="100%" y2="100%"><stop offset="20%" stop-color="#3cd7fa" stop-opacity="1"></stop><stop offset="80%" stop-color="#309fc2" stop-opacity="1"></stop></linearGradient></defs><defs><linearGradient id="grad1_2" x1="33.3%" y1="0%" x2="100%" y2="100%"><stop offset="20%" stop-color="#246b8a" stop-opacity="1"></stop><stop offset="80%" stop-color="#309fc2" stop-opacity="1"></stop></linearGradient></defs><defs><linearGradient id="grad1_3" x1="33.3%" y1="0%" x2="100%" y2="100%"><stop offset="20%" stop-color="#246b8a" stop-opacity="1"></stop><stop offset="80%" stop-color="#143c53" stop-opacity="1"></stop></linearGradient></defs><defs><linearGradient id="grad1_4" x1="33.3%" y1="0%" x2="100%" y2="100%"><stop offset="20%" stop-color="#001220" stop-opacity="1"></stop><stop offset="80%" stop-color="#143c53" stop-opacity="1"></stop></linearGradient></defs><defs><linearGradient id="grad2_0" x1="0%" y1="0%" x2="66.7%" y2="100%"><stop offset="20%" stop-color="#3cd7fa" stop-opacity="1"></stop><stop offset="80%" stop-color="#3cd7fa" stop-opacity="1"></stop></linearGradient></defs><defs><linearGradient id="grad2_1" x1="0%" y1="0%" x2="66.7%" y2="100%"><stop offset="20%" stop-color="#309fc2" stop-opacity="1"></stop><stop offset="80%" stop-color="#3cd7fa" stop-opacity="1"></stop></linearGradient></defs><defs><linearGradient id="grad2_2" x1="0%" y1="0%" x2="66.7%" y2="100%"><stop offset="20%" stop-color="#309fc2" stop-opacity="1"></stop><stop offset="80%" stop-color="#246b8a" stop-opacity="1"></stop></linearGradient></defs><defs><linearGradient id="grad2_3" x1="0%" y1="0%" x2="66.7%" y2="100%"><stop offset="20%" stop-color="#143c53" stop-opacity="1"></stop><stop offset="80%" stop-color="#246b8a" stop-opacity="1"></stop></linearGradient></defs><defs><linearGradient id="grad2_4" x1="0%" y1="0%" x2="66.7%" y2="100%"><stop offset="20%" stop-color="#143c53" stop-opacity="1"></stop><stop offset="80%" stop-color="#001220" stop-opacity="1"></stop></linearGradient></defs><g transform="translate(900, 0)"><path d="M0 351.5C-63.7 343.6 -127.4 335.7 -175.8 304.4C-224.2 273.2 -257.3 218.6 -284.1 164C-310.8 109.4 -331.2 54.7 -351.5 0L0 0Z" fill="#0b2639"></path><path d="M0 281.2C-50.9 274.9 -101.9 268.6 -140.6 243.6C-179.3 218.6 -205.8 174.9 -227.2 131.2C-248.6 87.5 -264.9 43.7 -281.2 0L0 0Z" fill="#1c536e"></path><path d="M0 210.9C-38.2 206.2 -76.4 201.4 -105.5 182.7C-134.5 163.9 -154.4 131.2 -170.4 98.4C-186.5 65.6 -198.7 32.8 -210.9 0L0 0Z" fill="#2a85a6"></path><path d="M0 140.6C-25.5 137.4 -50.9 134.3 -70.3 121.8C-89.7 109.3 -102.9 87.5 -113.6 65.6C-124.3 43.7 -132.5 21.9 -140.6 0L0 0Z" fill="#36bbde"></path><path d="M0 70.3C-12.7 68.7 -25.5 67.1 -35.2 60.9C-44.8 54.6 -51.5 43.7 -56.8 32.8C-62.2 21.9 -66.2 10.9 -70.3 0L0 0Z" fill="#3cd7fa"></path></g><g transform="translate(0, 600)"><path d="M0 -351.5C68.3 -346.3 136.6 -341 175.8 -304.4C214.9 -267.9 225 -200 249.4 -144C273.9 -88 312.7 -44 351.5 0L0 0Z" fill="#0b2639"></path><path d="M0 -281.2C54.6 -277 109.3 -272.8 140.6 -243.6C172 -214.3 180 -160 199.5 -115.2C219.1 -70.4 250.2 -35.2 281.2 0L0 0Z" fill="#1c536e"></path><path d="M0 -210.9C41 -207.8 82 -204.6 105.5 -182.7C129 -160.7 135 -120 149.6 -86.4C164.3 -52.8 187.6 -26.4 210.9 0L0 0Z" fill="#2a85a6"></path><path d="M0 -140.6C27.3 -138.5 54.6 -136.4 70.3 -121.8C86 -107.1 90 -80 99.8 -57.6C109.5 -35.2 125.1 -17.6 140.6 0L0 0Z" fill="#36bbde"></path><path d="M0 -70.3C13.7 -69.3 27.3 -68.2 35.2 -60.9C43 -53.6 45 -40 49.9 -28.8C54.8 -17.6 62.5 -8.8 70.3 0L0 0Z" fill="#3cd7fa"></path></g></svg>