<svg id="visual" viewBox="0 0 900 600" width="900" height="600" xmlns="http://www.w3.org/2000/svg" xmlns:xlink="http://www.w3.org/1999/xlink" version="1.1"><rect x="0" y="0" width="900" height="600" fill="#000000"></rect><path d="M0 308L225 387L450 377L675 408L900 372L900 601L675 601L450 601L225 601L0 601Z" fill="#002d87"></path><path d="M0 330L225 373L450 458L675 377L900 360L900 601L675 601L450 601L225 601L0 601Z" fill="#004aa5"></path><path d="M0 397L225 444L450 398L675 449L900 458L900 601L675 601L450 601L225 601L0 601Z" fill="#0068c1"></path><path d="M0 539L225 518L450 489L675 487L900 456L900 601L675 601L450 601L225 601L0 601Z" fill="#0087dc"></path><path d="M0 540L225 573L450 566L675 503L900 528L900 601L675 601L450 601L225 601L0 601Z" fill="#0aa6f5"></path></svg>