<?xml version="1.0" standalone="no"?><svg xmlns="http://www.w3.org/2000/svg" viewBox="0 0 1440 320"><path fill="#0099ff" fill-opacity="1" d="M0,32L30,69.3C60,107,120,181,180,192C240,203,300,149,360,149.3C420,149,480,203,540,202.7C600,203,660,149,720,122.7C780,96,840,96,900,85.3C960,75,1020,53,1080,90.7C1140,128,1200,224,1260,261.3C1320,299,1380,277,1410,266.7L1440,256L1440,0L1410,0C1380,0,1320,0,1260,0C1200,0,1140,0,1080,0C1020,0,960,0,900,0C840,0,780,0,720,0C660,0,600,0,540,0C480,0,420,0,360,0C300,0,240,0,180,0C120,0,60,0,30,0L0,0Z"></path></svg>